<svg width="40" height="40" viewBox="0 0 40 40" fill="none" xmlns="http://www.w3.org/2000/svg">
<path d="M17.8471 28.9577C15.7965 30.2286 14.2135 29.5576 12.8653 27.789C12.5542 27.3809 12.1412 27.0506 11.7751 26.6845C9.95239 24.8617 9.89913 24.5762 11.0134 22.15C12.7706 18.6462 14.4657 15.2629 16.1608 11.8796C17.861 9.40739 19.7409 7.11929 22.4024 5.59556C26.247 3.39449 30.3648 2.93128 34.665 3.64083C35.6152 3.79762 36.2314 4.41633 36.3799 5.36566C37.5405 12.7867 35.2395 19.3535 28.2271 23.714C27.4225 24.1817 26.7573 24.6279 26.0452 24.9788C23.3207 26.3217 20.5811 27.634 17.8471 28.9577ZM26.2063 10.1781C25.502 11.539 25.6293 12.7525 26.5646 13.5917C27.4591 14.3944 28.8623 14.4776 29.8351 13.7857C31.0445 12.9256 31.2952 11.2585 30.3881 10.1087C29.3593 8.80478 27.6687 8.78103 26.2063 10.1781Z" fill="#0085DB"/>
<path fill-rule="evenodd" clip-rule="evenodd" d="M11.0166 22.0725C12.7708 18.6464 14.4659 15.2631 16.0646 11.8721C15.4544 11.8694 14.8567 11.8715 14.267 11.8735C13.2217 11.8772 12.2016 11.8808 11.1821 11.8572C9.30521 11.8136 7.89865 12.6136 6.92814 14.1715C5.81085 15.965 4.71679 17.7746 3.6711 19.6105C2.87624 21.0061 3.53106 22.0951 5.13073 22.1102C7.07283 22.1286 9.01523 22.115 11.0166 22.0725ZM24.0507 25.9577C21.986 26.9683 19.9165 27.9813 17.8543 29.0582C17.8573 29.7524 17.856 30.4343 17.8546 31.1082C17.8522 32.3502 17.8497 33.5649 17.8752 34.7789C17.9095 36.4175 19.1272 37.2053 20.4429 36.4335C22.2659 35.3639 24.0727 34.2626 25.8419 33.1067C27.1371 32.2605 28.0554 31.1078 28.1087 29.4659C28.1705 27.5631 28.2063 25.6595 28.1814 23.7678C27.8657 23.9401 27.5662 24.1179 27.2728 24.2922C26.861 24.5367 26.4612 24.7741 26.0454 24.979C25.3813 25.3064 24.7162 25.6319 24.0507 25.9577Z" fill="#5AC8FA"/>
</svg>
