<?xml version="1.0" encoding="UTF-8"?>
<svg id="Layer_1" data-name="Layer 1" xmlns="http://www.w3.org/2000/svg" viewBox="0 0 216.96 20.83">
  <defs>
    <style>
      .cls-1 {
        fill: #2d3250;
      }

      .cls-1, .cls-2 {
        stroke-width: 0px;
      }

      .cls-2 {
        fill: #7177a1;
      }
    </style>
  </defs>
  <path class="cls-1" d="M0,17.45V0h3.31v6.39L11.12,0h4.59L5.46,8.72l10.25,8.72h-4.59l-7.81-6.37v6.37H0Z"/>
  <path class="cls-2" d="M20.45,6.41h2.21c1.4,0,2.51.41,3.33,1.22.8.83,1.21,1.96,1.21,3.38v6.12h-2.66v-5.94c0-.88-.16-1.5-.47-1.87-.37-.46-.93-.68-1.67-.68h-1.71c-.71,0-1.25.23-1.64.68-.29.37-.43,1-.43,1.87v5.94h-2.66v-6.12c0-1.43.4-2.56,1.21-3.38.82-.82,1.91-1.22,3.29-1.22Z"/>
  <path class="cls-2" d="M36.14,17.14h-3.19c-1.37-.01-2.44-.41-3.22-1.19-.77-.76-1.15-1.82-1.15-3.19v-1.96c0-1.38.38-2.45,1.15-3.2.78-.78,1.85-1.18,3.22-1.19h3.19c1.38.01,2.46.41,3.24,1.19.77.76,1.15,1.82,1.15,3.2v1.96c0,1.37-.38,2.43-1.15,3.19-.78.78-1.86,1.18-3.24,1.19ZM35.89,14.91c.73,0,1.25-.2,1.57-.61.28-.37.41-.93.41-1.67v-1.66c0-.76-.14-1.32-.41-1.69-.31-.42-.83-.63-1.57-.63h-2.7c-.72,0-1.24.21-1.55.63-.26.36-.4.92-.4,1.69v1.66c0,.76.13,1.31.4,1.67.31.41.83.61,1.55.61h2.7Z"/>
  <path class="cls-2" d="M50.22,15.84c-.73.86-1.67,1.3-2.83,1.3h-1.4c-1.26,0-2.27-.4-3.04-1.21-.7-.74-1.04-1.78-1.04-3.11v-6.41h2.65v6.35c0,.76.15,1.3.45,1.62.32.35.76.52,1.3.52h.83c.55,0,.99-.17,1.31-.52.31-.32.47-.86.47-1.62v-6.35h2.63v6.35c0,.76.15,1.3.45,1.62.32.35.76.52,1.3.52h.83c.55,0,.99-.17,1.31-.52.31-.32.47-.86.47-1.62v-6.35h2.65v6.41c0,1.33-.36,2.37-1.08,3.11-.78.8-1.8,1.21-3.06,1.21h-1.4c-1.12,0-2.04-.43-2.77-1.3Z"/>
  <path class="cls-2" d="M60.12,17.14V2.95h2.7v14.18h-2.7Z"/>
  <path class="cls-2" d="M76.03,9.63v.76c0,.9-.32,1.66-.97,2.27-.66.61-1.48.92-2.45.92h-5.51v.05c0,.86.61,1.3,1.82,1.3h6.62v2.21h-6.89c-1.34,0-2.39-.35-3.13-1.04-.72-.68-1.08-1.62-1.08-2.83v-3.65c0-.9.32-1.66.95-2.27.65-.62,1.49-.94,2.54-.94h4.59c1.04,0,1.89.31,2.54.94.65.62.97,1.39.97,2.29ZM68.63,11.38h3.19c1.03,0,1.55-.4,1.55-1.19v-.38c0-.8-.52-1.21-1.55-1.21h-3.19c-1.02,0-1.53.4-1.53,1.21v.38c0,.79.51,1.19,1.53,1.19Z"/>
  <path class="cls-2" d="M88.94,12.77c0,1.37-.39,2.43-1.17,3.19-.78.78-1.85,1.18-3.22,1.19h-2.83c-1.37-.01-2.44-.41-3.22-1.19-.77-.76-1.15-1.82-1.15-3.19v-1.94c0-1.38.38-2.45,1.15-3.2.78-.78,1.85-1.18,3.22-1.21h4.55v-3.46h2.66v9.81ZM86.27,12.64v-4h-4.34c-.71,0-1.22.21-1.53.63-.26.36-.4.92-.4,1.69v1.66c0,.76.13,1.31.4,1.67.31.41.82.61,1.53.61h2.39c.71,0,1.22-.2,1.55-.61.26-.36.4-.91.4-1.66Z"/>
  <path class="cls-2" d="M101.95,10.79v6.19c0,1.26-.35,2.2-1.06,2.83-.7.68-1.76,1.03-3.19,1.03h-6.37v-2.23h6.14c1.21,0,1.82-.38,1.82-1.13v-.67c-.36.23-.91.34-1.64.34h-2.97c-1.32,0-2.38-.39-3.17-1.17-.77-.78-1.15-1.85-1.15-3.2v-1.96c0-1.37.38-2.44,1.15-3.22.79-.78,1.85-1.17,3.17-1.17h2.93c1.32,0,2.38.39,3.17,1.17.78.79,1.17,1.86,1.17,3.2ZM99.29,12.62v-1.66c0-.77-.13-1.33-.4-1.69-.32-.42-.84-.63-1.55-.63h-2.39c-.71,0-1.22.21-1.53.63-.26.36-.4.92-.4,1.69v1.66c0,.76.13,1.31.4,1.67.31.41.82.61,1.53.61h2.39c.71,0,1.22-.2,1.55-.61.26-.36.4-.92.4-1.67Z"/>
  <path class="cls-2" d="M114.91,9.63v.76c0,.9-.32,1.66-.97,2.27-.66.61-1.48.92-2.45.92h-5.51v.05c0,.86.61,1.3,1.82,1.3h6.62v2.21h-6.89c-1.34,0-2.39-.35-3.13-1.04-.72-.68-1.08-1.62-1.08-2.83v-3.65c0-.9.32-1.66.95-2.27.65-.62,1.49-.94,2.54-.94h4.59c1.04,0,1.89.31,2.54.94.65.62.97,1.39.97,2.29ZM107.51,11.38h3.19c1.03,0,1.55-.4,1.55-1.19v-.38c0-.8-.52-1.21-1.55-1.21h-3.19c-1.02,0-1.53.4-1.53,1.21v.38c0,.79.51,1.19,1.53,1.19Z"/>
  <path class="cls-1" d="M123.1,17.45V0h3.33v17.45h-3.33Z"/>
  <path class="cls-2" d="M135.64,10.68c1.14,0,2,.2,2.57.59.74.49,1.12,1.24,1.12,2.25v.81c0,1-.37,1.74-1.12,2.23-.59.38-1.49.58-2.72.58h-7.15v-2.23h6.97c.89,0,1.33-.26,1.33-.77v-.45c0-.53-.43-.79-1.3-.79h-3.58c-1.12,0-1.97-.19-2.58-.58-.72-.49-1.08-1.24-1.08-2.23v-.83c0-1.02.36-1.77,1.08-2.25.59-.4,1.48-.59,2.68-.59h6.88v2.23h-6.64c-.88,0-1.31.26-1.31.79v.47c0,.52.42.77,1.26.77h3.58Z"/>
  <path class="cls-1" d="M163.11,7.15c0,1.26-.46,2.29-1.38,3.09-.89.78-2.15,1.18-3.79,1.18h-7.3v6.04h-3.29V0h10.45c1.73,0,3.04.4,3.93,1.2.92.8,1.38,1.83,1.38,3.11v2.84ZM157.45,8.68c1.58,0,2.37-.59,2.37-1.78v-2.37c0-1.18-.79-1.78-2.37-1.78h-6.81v5.93h6.81Z"/>
  <path class="cls-2" d="M172.1,17.14h-3.19c-1.37-.01-2.44-.41-3.22-1.19-.77-.76-1.15-1.82-1.15-3.19v-1.96c0-1.38.38-2.45,1.15-3.2.78-.78,1.85-1.18,3.22-1.19h3.19c1.38.01,2.46.41,3.24,1.19.77.76,1.15,1.82,1.15,3.2v1.96c0,1.37-.38,2.43-1.15,3.19-.78.78-1.86,1.18-3.24,1.19ZM171.85,14.91c.73,0,1.25-.2,1.57-.61.28-.37.41-.93.41-1.67v-1.66c0-.76-.14-1.32-.41-1.69-.31-.42-.83-.63-1.57-.63h-2.7c-.72,0-1.24.21-1.55.63-.26.36-.4.92-.4,1.69v1.66c0,.76.13,1.31.4,1.67.31.41.83.61,1.55.61h2.7Z"/>
  <path class="cls-2" d="M186.18,15.84c-.73.86-1.67,1.3-2.83,1.3h-1.4c-1.26,0-2.27-.4-3.04-1.21-.7-.74-1.04-1.78-1.04-3.11v-6.41h2.65v6.35c0,.76.15,1.3.45,1.62.32.35.76.52,1.3.52h.83c.55,0,.99-.17,1.31-.52.31-.32.47-.86.47-1.62v-6.35h2.63v6.35c0,.76.15,1.3.45,1.62.32.35.76.52,1.3.52h.83c.55,0,.99-.17,1.31-.52.31-.32.47-.86.47-1.62v-6.35h2.65v6.41c0,1.33-.36,2.37-1.08,3.11-.78.8-1.8,1.21-3.06,1.21h-1.4c-1.12,0-2.04-.43-2.77-1.3Z"/>
  <path class="cls-2" d="M207.49,9.63v.76c0,.9-.32,1.66-.97,2.27-.66.61-1.48.92-2.45.92h-5.51v.05c0,.86.61,1.3,1.82,1.3h6.62v2.21h-6.89c-1.34,0-2.39-.35-3.13-1.04-.72-.68-1.08-1.62-1.08-2.83v-3.65c0-.9.32-1.66.95-2.27.65-.62,1.49-.94,2.54-.94h4.59c1.04,0,1.89.31,2.54.94.65.62.97,1.39.97,2.29ZM200.09,11.38h3.19c1.03,0,1.55-.4,1.55-1.19v-.38c0-.8-.52-1.21-1.55-1.21h-3.19c-1.02,0-1.53.4-1.53,1.21v.38c0,.79.51,1.19,1.53,1.19Z"/>
  <path class="cls-2" d="M208.82,9.81c0-1.04.35-1.88,1.04-2.5.66-.6,1.67-.9,3.02-.9h4.07v2.23h-3.8c-1.1,0-1.66.5-1.66,1.51v6.98h-2.68v-7.33Z"/>
</svg>