<?xml version="1.0" encoding="UTF-8"?>
<svg id="Layer_1" data-name="Layer 1" xmlns="http://www.w3.org/2000/svg" viewBox="0 0 54.11 17.45">
  <defs>
    <style>
      .cls-1 {
        fill: #2d3250;
        stroke-width: 0px;
      }
    </style>
  </defs>
  <path class="cls-1" d="M0,17.45V0h3.31v6.39L11.12,0h4.59L5.46,8.72l10.25,8.72h-4.59l-7.81-6.37v6.37H0Z"/>
  <path class="cls-1" d="M24.1,17.45V0h3.33v17.45h-3.33Z"/>
  <path class="cls-1" d="M54.11,7.15c0,1.26-.46,2.29-1.38,3.09-.89.78-2.15,1.18-3.79,1.18h-7.3v6.04h-3.29V0h10.45c1.73,0,3.04.4,3.93,1.2.92.8,1.38,1.83,1.38,3.11v2.84ZM48.45,8.68c1.58,0,2.37-.59,2.37-1.78v-2.37c0-1.18-.79-1.78-2.37-1.78h-6.81v5.93h6.81Z"/>
</svg>